<svg version="1.1" xmlns="http://www.w3.org/2000/svg" style="display: block;" viewBox="0 0 2048 2048" width="1024" height="1024" preserveAspectRatio="none">
<path transform="translate(0,0)" fill="rgb(242,242,240)" d="M 0 0 L 2048 0 L 2048 2048 L 0 2048 L 0 0 z"/>
<path transform="translate(0,0)" fill="rgb(8,8,8)" d="M 1387.6 511.951 C 1408.94 511.782 1430.31 514.088 1451.64 513.916 C 1493.4 513.579 1535.98 508.177 1577.49 514.833 C 1624.38 522.351 1668.07 541.222 1696.35 580.594 C 1725.81 621.61 1733.77 673.651 1725.55 722.947 C 1718.15 767.316 1693.82 799.555 1657.65 825.189 C 1593.77 864.568 1520.78 859.106 1448.82 857.421 C 1432.48 857.037 1408.28 858.728 1393.19 856.787 C 1391.08 856.515 1391.04 856.346 1389.84 854.708 C 1389.74 853.327 1389.35 852.224 1390.07 850.96 C 1392.72 846.315 1402.69 844.349 1407.53 842.447 C 1414.59 839.679 1422.2 835.758 1425.2 828.341 C 1427.71 822.127 1428.7 815.224 1429.1 808.565 C 1429.97 793.964 1429.33 779.053 1429.29 764.426 L 1429.27 689.499 C 1429.32 648.974 1431.59 607.883 1429.64 567.455 C 1429.21 558.622 1428.78 548.864 1425.2 540.657 C 1418.21 524.644 1402.41 527.607 1388.68 521.918 C 1387.03 519.056 1387.55 515.19 1387.6 511.951 z"/>
<path transform="translate(0,0)" fill="rgb(242,242,240)" d="M 1510.62 531.425 C 1520.09 530.489 1530.09 530.919 1539.57 531.719 C 1573.2 534.561 1609.84 547.996 1632.01 574.581 C 1662.13 610.703 1664.48 670.04 1660.33 714.828 C 1656.52 755.968 1647.27 788.62 1614.52 815.781 C 1580.46 842.337 1530.03 842.935 1489 841.744 C 1487.43 805.495 1488.73 768.727 1488.76 732.431 L 1488.95 533.292 L 1510.62 531.425 z"/>
<path transform="translate(0,0)" fill="rgb(8,8,8)" d="M 357.366 512.54 C 385.049 511.161 416.749 513.145 445.003 513.095 L 506.526 671.869 C 519.245 704.867 530.334 738.773 545.845 770.577 C 575.385 705.995 598.911 638.189 625.194 572.197 C 632.943 552.74 640.213 532.849 648.957 513.822 C 665.763 513.229 682.63 514.775 699.447 514.598 C 715.503 514.429 731.685 512.142 747.718 513.51 C 749.135 515.585 749.541 515.81 749.444 518.278 C 745.611 524.472 724.343 526.879 716.661 532.035 C 710.868 535.924 708.744 541.39 707.438 548.083 C 704.964 560.754 707.492 575.745 708.164 588.629 L 711.945 661.283 C 714.324 711.698 714.383 762.574 718.14 812.876 C 718.545 818.298 718.89 824.326 721.046 829.364 C 729.661 849.495 753.497 841.962 760.37 852.526 C 760.338 854.991 760.404 855.595 759.16 857.682 C 733.824 859.557 707.751 856.563 682.32 856.552 C 664.158 856.544 634.183 860.157 617.836 857.368 C 616.078 855.4 615.306 854.821 614.761 852.281 C 619.723 845.16 641.576 846.829 652.225 835.306 C 656.695 830.469 659.044 824.506 660.019 818.052 C 662.443 802.015 659.681 771.281 658.981 754.113 L 651.895 608.751 C 650.888 592.942 650.202 577.115 649.839 561.278 C 636.786 585.065 624.499 621.351 614.22 647.431 L 553.707 800.221 C 548.961 812.208 535.764 850.175 530.475 857.156 C 528.862 859.286 525.591 858.728 523.163 858.885 C 519.284 856.981 508.161 826.591 505.77 820.808 C 493.082 790.115 479.028 759.857 467.313 728.783 L 430.466 632.767 C 422.196 611.153 415.288 586.617 402.918 567.051 L 402.031 565.661 C 402.004 609.87 400.606 653.641 398.6 697.8 C 397.28 726.866 389.274 801.175 395.679 825.526 C 402.689 852.181 420.61 839.255 435.029 847.778 C 436.49 850.586 435.941 854.815 435.913 857.972 C 424.814 858.081 329.484 857.372 328.64 856.958 C 327.311 854.162 327.02 853.567 327.245 850.512 C 332.91 842.36 348.888 847.794 360.636 837.913 C 363.602 835.419 366.186 832.223 367.5 828.546 C 372.381 814.874 375.079 759.906 376.594 741.783 C 379.546 706.448 378.97 670.674 380.231 635.233 L 382.291 579.563 C 382.625 569.634 383.447 559.4 382.75 549.486 C 382.339 543.652 381.88 538.664 377.808 534.177 C 369.051 524.531 352.38 524.928 340.29 524.151 L 340.847 512.881 L 357.366 512.54 z"/>
<path transform="translate(0,0)" fill="rgb(8,8,8)" d="M 1037.78 512.533 C 1053.67 511.731 1069.62 511.951 1085.52 512.099 C 1102.34 532.063 1117.98 553.357 1134.2 573.839 L 1280.08 759.838 C 1279.85 713.988 1280.14 668.138 1280.94 622.294 C 1281.16 600.894 1282.96 578.735 1281.46 557.415 C 1281 550.808 1280.58 543.429 1276.6 537.884 C 1266.17 523.354 1252.21 526.986 1239.31 523.215 C 1236.85 522.497 1235.6 521.755 1234.75 519.236 C 1234.01 517.033 1234.47 514.833 1235.66 513.021 C 1248.51 511.842 1261.95 513.799 1274.9 513.741 C 1293.1 513.659 1311.29 511.572 1329.51 511.955 C 1332.3 512.014 1334.51 511.929 1336.94 513.355 C 1337.09 514.214 1337.36 515.473 1337.24 516.325 C 1336.24 523.799 1319.69 523.229 1313.74 527.542 C 1306.9 532.508 1303.56 541.038 1301.98 549.069 C 1297.38 572.5 1300.02 610.298 1300.02 635.289 C 1300.47 692.91 1300.22 750.534 1299.27 808.148 C 1298.96 824.41 1301.12 842.768 1298.46 858.705 C 1296.24 860.21 1295.65 860.61 1292.82 860.32 C 1280.99 859.11 1257.31 825.57 1249.79 816.27 C 1240.4 805.61 1232.04 793.413 1223.33 782.149 L 1173.97 718.489 C 1135.38 668.385 1095.75 619.034 1058.39 568.017 C 1057.44 575.105 1057.07 582.201 1056.93 589.347 C 1056.03 635.829 1056.32 682.39 1056.18 728.884 C 1056.1 755.544 1054.28 783.452 1056.73 809.916 C 1057.45 817.724 1059.11 827.629 1063.59 834.161 C 1074.29 849.788 1094.52 841.311 1101.63 848.694 C 1102.35 851.556 1102.28 852.955 1101.67 855.748 C 1100.59 856.232 1100.38 856.394 1099.03 856.599 C 1091.98 857.672 1067.16 855.929 1057.49 855.935 C 1038.98 855.948 1020.24 857.627 1001.8 857.241 C 998.776 857.178 995.035 857.487 992.544 855.756 C 992.284 852.989 992.142 851.581 993.287 848.952 C 996.558 846.385 1001.98 847.547 1006.01 846.915 C 1014.43 845.597 1022.5 841.583 1027.53 834.555 C 1031.12 829.537 1033.09 823.519 1033.83 817.433 C 1035.89 800.7 1034.8 782.419 1035.12 765.478 C 1035.95 721.823 1036.27 678.16 1036.08 634.498 L 1036.78 574.603 C 1036.83 565.833 1037.72 555.54 1036.13 546.927 C 1031.3 520.719 1007.21 529.007 994.085 520.36 C 992.646 517.923 992.605 517.508 992.658 514.665 C 999.305 510.556 1028.88 512.55 1037.78 512.533 z"/>
<path transform="translate(0,0)" fill="rgb(8,8,8)" d="M 1602.09 1073.43 C 1606.64 1073.23 1611.19 1073.13 1615.74 1073.15 C 1648.09 1073.5 1680.95 1081.55 1704.15 1105.58 C 1718.93 1120.9 1723.87 1140.48 1723.48 1161.32 C 1723.02 1185.85 1715.42 1206.87 1697.5 1224 C 1661.18 1258.72 1610.25 1253.11 1563.96 1251.8 C 1563.91 1274.35 1560.91 1343.99 1567.31 1361.16 C 1570.48 1369.69 1578.48 1374.03 1586.31 1377.52 C 1590.61 1378.45 1595.61 1377.9 1599.46 1380.17 C 1600.58 1382.72 1600.39 1382.76 1599.57 1385.46 C 1589.94 1387.53 1558.27 1384.93 1546.55 1384.84 C 1529.84 1384.72 1513.14 1385.94 1496.47 1385.72 C 1495.06 1383.72 1495.28 1383.14 1495.27 1380.66 C 1499.19 1376.43 1509.85 1378.24 1515.82 1374.1 C 1521.86 1369.91 1524.66 1363.21 1525.81 1356.18 C 1527.64 1345.04 1526.89 1332.76 1526.91 1321.48 L 1526.97 1268.03 L 1527.01 1176.63 C 1527 1156.79 1527.45 1136.82 1526.29 1117.01 C 1525.92 1110.66 1525.14 1104.09 1522.74 1098.16 C 1516.46 1082.63 1502.94 1087.59 1496.32 1078.23 L 1496.86 1076.66 C 1511.09 1075 1526.14 1076.08 1540.49 1075.89 C 1561.03 1075.63 1581.58 1074.47 1602.09 1073.43 z"/>
<path transform="translate(0,0)" fill="rgb(242,242,240)" d="M 1568.42 1084.51 C 1576.74 1084.03 1585.21 1083.84 1593.55 1083.96 C 1618.81 1084.31 1646.18 1088.98 1664.45 1108.04 C 1677.34 1121.49 1682 1140.18 1681.64 1158.4 C 1681.12 1184.29 1672.57 1204.51 1654.06 1222.42 C 1648.63 1226.78 1642.94 1230.86 1636.73 1234.04 C 1618.94 1243.14 1598.42 1245.48 1578.7 1243.51 C 1575.31 1243.17 1570.63 1243 1567.57 1241.57 C 1565.98 1240.82 1564.93 1240.37 1564.5 1238.64 C 1562.19 1229.25 1563.87 1215.92 1563.87 1206.02 L 1564.03 1129.46 C 1564.09 1117.17 1563.17 1104.53 1563.62 1092.32 C 1563.72 1089.67 1563.78 1087.62 1565.15 1085.27 L 1568.42 1084.51 z"/>
<path transform="translate(0,0)" fill="rgb(8,8,8)" d="M 1083.17 1072.75 C 1103.12 1074.22 1128.56 1071.88 1147.48 1077.1 L 1147.91 1078.41 C 1144.38 1082.14 1135.97 1083.37 1131.26 1085.89 C 1125.73 1088.86 1121.76 1093.59 1119.97 1099.62 C 1116.56 1111.12 1119.45 1161.95 1119.69 1177.86 C 1120.48 1229.75 1120.24 1281.94 1122.7 1333.76 C 1123.17 1343.48 1123.17 1354.31 1125.66 1363.71 C 1130.41 1381.66 1141.53 1375.1 1147.03 1385.09 L 1146.35 1386.86 C 1135.46 1389.8 1120.92 1386.74 1109.48 1386.96 C 1091.03 1387.32 1071.18 1390.33 1052.9 1388.86 C 1050.53 1387.34 1050.26 1387.39 1049.4 1384.75 C 1054.46 1378.24 1069.54 1383.05 1077.59 1374.25 C 1081.86 1369.58 1083.12 1361.34 1083.76 1355.2 C 1084.99 1343.45 1084.25 1331.04 1084.23 1319.21 C 1084.35 1294.93 1083.92 1270.65 1082.96 1246.39 C 1081.22 1199.83 1080.18 1153.24 1079.85 1106.65 C 1067.88 1127.28 1060.62 1151.99 1051.54 1174.11 L 992.625 1314.39 L 974.215 1357.56 C 970.518 1366.4 967.399 1375.89 962.907 1384.35 C 961.352 1387.27 960.132 1389.66 956.903 1390.72 C 949.724 1381.19 938.188 1343.75 932.976 1329.59 C 909.325 1266.26 886.448 1202.64 864.352 1138.75 C 860.926 1129.26 857.192 1120.12 852.15 1111.36 C 851.963 1134.77 850.286 1158.34 849.232 1181.74 C 847.896 1211.43 846.992 1241.26 844.88 1270.9 C 842.682 1301.73 837.281 1333.88 839.526 1364.78 C 840.888 1383.53 861.062 1375.25 870.629 1383.59 L 870.74 1385.28 C 870.3 1385.74 869.925 1386.27 869.421 1386.66 C 868.438 1387.41 866.775 1387.93 865.544 1388.08 C 858.478 1388.91 799.9 1388.89 794.042 1387.71 L 793.37 1385.32 C 795.226 1377.42 807.624 1379.46 813.719 1375.17 C 823.193 1368.48 824.549 1352.93 825.993 1342.34 C 828.1 1326.89 828.941 1311.11 830.144 1295.57 C 833.07 1257.74 834.898 1219.98 836.843 1182.1 C 837.579 1166.34 838.521 1150.59 839.669 1134.86 C 840.446 1124.3 841.819 1113.48 841.778 1102.9 C 841.767 1100.15 841.554 1098.02 840.452 1095.45 C 834.575 1081.74 818.198 1088.21 810.886 1078.52 L 811.402 1076.63 C 834.118 1075.12 857.877 1075.13 881.028 1073.85 C 884.365 1086.07 889.309 1098.21 893.455 1110.21 L 919.737 1185.46 L 948.704 1265.16 C 956.68 1287.15 963.993 1309.55 974.183 1330.64 L 1030.01 1194.95 C 1046.78 1153.88 1062.66 1112.14 1083.17 1072.75 z"/>
<path transform="translate(0,0)" fill="rgb(8,8,8)" d="M 1323.52 1067.51 C 1325.27 1067.62 1326.76 1067.65 1328.41 1068.35 C 1331.86 1069.81 1420.81 1313.81 1430.36 1340.64 C 1434.62 1352.63 1440.78 1367.61 1453.02 1373.34 C 1457.82 1375.59 1463.28 1376.89 1467.9 1379.46 C 1470.36 1380.83 1471.18 1381.58 1471.85 1384.28 L 1470.47 1385.58 C 1455.56 1386.84 1440.32 1385.42 1425.34 1386.03 C 1405.1 1386.86 1383.99 1390.35 1363.83 1389.32 C 1362.68 1387.33 1362.77 1386.71 1362.77 1384.38 C 1366.95 1379.79 1373.06 1381.1 1378.6 1379.34 C 1383.01 1377.95 1386.84 1375.15 1388.76 1370.86 C 1396.26 1354.1 1366.66 1281.79 1359.23 1261.42 L 1336.46 1261.81 C 1310.89 1262.06 1285.32 1262.09 1259.75 1261.92 C 1250.02 1286.12 1225.46 1333.79 1222.37 1357.5 C 1219.4 1380.21 1240.54 1374.46 1248.04 1384.15 L 1246.94 1386.22 C 1240.33 1387.15 1190.21 1387.18 1185.1 1385.7 L 1184.32 1384.24 C 1187.58 1378.66 1195.71 1375.91 1200.19 1371.13 C 1204.66 1366.36 1207.95 1359.31 1210.69 1353.43 C 1221.15 1330.97 1228.16 1306.09 1237.03 1282.9 C 1258.7 1224.8 1281.23 1167.03 1304.62 1109.6 C 1309.34 1098.08 1315.39 1076.05 1323.52 1067.51 z"/>
<path transform="translate(0,0)" fill="rgb(242,242,240)" d="M 1308.79 1129.61 C 1312.76 1132.15 1350.19 1234.95 1355.03 1248.2 C 1340.67 1249.21 1326.16 1249.02 1311.76 1249.18 C 1295.71 1249.05 1279.59 1249.23 1263.58 1248.13 C 1271.11 1224.49 1280.86 1201.56 1289.66 1178.38 C 1295.8 1162.2 1300.59 1144.89 1308.79 1129.61 z"/>
<path transform="translate(0,0)" fill="rgb(8,8,8)" d="M 914.722 512.435 C 922.714 512.057 939.059 509.35 945.016 514.704 L 944.945 518.914 C 940.291 525.202 921.937 523.673 914.029 530.635 C 906.69 537.095 904.55 548.465 904.047 557.762 C 903.194 573.532 903.901 589.602 903.956 605.411 L 904.009 686.645 L 904.005 766.703 C 904.004 780.853 903.319 795.421 904.234 809.521 C 904.632 815.666 905.882 821.868 908.648 827.407 C 918.235 846.605 935.49 840.281 945.94 851.959 C 946.531 854.389 946.632 854.318 945.423 856.488 C 930.645 857.488 915.6 856.246 900.801 855.732 C 881.711 855.069 862.823 854.937 843.736 855.861 C 834.853 855.865 815.349 858.953 807.842 855.806 C 805.283 854.733 805.213 854.333 804.375 851.893 C 806.606 846.074 822.327 845.888 830.557 839.888 C 837.831 834.585 841.32 826.887 842.472 818.141 C 844.17 805.25 843.06 791.128 843.007 778.092 L 843.14 713.875 L 843.165 604.689 C 843.171 588.573 844.066 572.078 843.371 556.017 C 843.178 551.566 842.525 547.192 840.817 543.049 C 832.705 523.374 811.846 527.621 806.036 518.907 C 805.112 517.521 805.705 516.476 805.947 514.942 C 806.444 514.448 806.795 513.74 807.436 513.46 C 811.276 511.781 830.032 513.566 834.997 513.686 C 861.576 514.555 888.182 514.138 914.722 512.435 z"/>
<path transform="translate(0,0)" fill="rgb(8,8,8)" d="M 764.348 935.245 C 766.072 935.119 767.682 935.189 769.405 935.271 C 773.626 939.934 779.641 946.108 781.917 951.935 C 782.719 953.988 782.688 953.094 781.853 955.074 C 779.104 954.23 777.854 953.468 775.035 954.227 C 773.46 956.276 772.42 957.497 771.911 960.096 L 775.367 960.65 L 775.669 962.32 C 773.972 964.343 772.634 965.891 771.855 968.484 C 772.702 969.793 773.077 970.42 773.428 971.977 L 771.905 972.732 C 770.852 971.638 769.91 970.877 768.614 970.087 L 765.391 972.413 C 765.365 972.962 765.324 973.511 765.314 974.06 C 765.188 981.227 755.529 989.99 752.115 996.43 L 752.68 997.444 C 754.344 996.583 755.668 995.767 757.498 995.368 C 754.184 1000.8 736.857 1019.41 736.737 1022.83 L 740.588 1022.42 L 740.882 1023.92 L 737.431 1028.55 C 731.56 1028.49 725.7 1028.85 719.837 1029.12 C 718.518 1031.53 719.382 1033.16 719.839 1035.78 C 723.057 1033.71 726.281 1031.11 730.188 1030.78 L 731.188 1032.16 C 730.85 1034.92 722.732 1054.2 721.563 1055.06 C 720.521 1055.82 717.367 1055.78 717.128 1057.75 C 716.826 1060.24 718.593 1060.17 716.949 1062.79 L 714.47 1061 L 713.486 1061.45 C 713.003 1063.33 712.581 1065.06 712.386 1066.99 C 712.153 1069.29 712.206 1071.13 710.946 1073.18 C 710.195 1074.4 710.324 1074.13 709.082 1074.43 C 708.951 1072.23 708.77 1070.62 707.922 1068.58 L 706.781 1068.68 L 705.434 1074.65 C 704.33 1074.74 703.227 1074.83 702.126 1074.95 C 700.534 1076.95 699.702 1078.05 699.453 1080.66 C 699.388 1081.33 699.349 1082.01 699.297 1082.68 L 698.762 1082.55 L 698.769 1082.56 C 700.77 1082.37 702.744 1082.26 704.753 1082.2 C 705.652 1083.87 705.734 1083.26 705.34 1084.86 C 704.672 1087.55 703.618 1090.04 701.203 1091.42 C 701.041 1089.42 700.904 1087.78 700.152 1085.91 L 699.233 1086.5 L 700.775 1087.58 L 698.631 1087.1 C 695.84 1090.82 697.673 1091.97 696.393 1094.26 C 693.279 1099.81 685.26 1102.64 683.792 1109.76 C 683.204 1112.62 684.014 1115.76 681.713 1117.76 C 681.697 1115.1 681.969 1112.29 680.95 1109.79 C 680.289 1110.3 679.908 1110.54 679.361 1111.26 C 676.203 1115.38 678.258 1122.45 679.108 1127.13 C 676.5 1128.4 673.728 1129.32 671.01 1130.32 C 669.047 1132.37 668.366 1133.39 667.812 1136.18 C 668.596 1138.39 669.125 1139.9 668.938 1142.25 L 664.489 1145.6 L 662.6 1144.08 L 662.021 1144.49 C 662.35 1146.5 662.534 1148.35 662.525 1150.4 C 658.957 1152.06 659.21 1148.67 655.362 1148.39 C 654.675 1152.25 657.058 1156.53 657.48 1160.56 C 652.869 1168.01 645.574 1173.54 639.711 1180.03 C 639.478 1183.9 639.668 1185.78 636.922 1188.57 C 635.233 1188.35 633.249 1187.93 631.559 1188.04 C 629.123 1188.18 628.776 1188.62 627.313 1190.32 L 632.004 1188.9 C 633.396 1194.37 618.441 1216.74 614.908 1222.73 C 613.432 1223.37 611.653 1224.02 610.347 1224.95 C 608.157 1226.51 607.452 1227.84 606.909 1230.39 C 608.104 1231.55 609.117 1232.64 610.091 1233.99 C 607.029 1240.09 600.822 1236.83 597.345 1240.7 C 598.873 1241.5 600.276 1242.35 601.698 1243.33 C 599.969 1246.67 596.626 1246.04 594.146 1248.88 C 596.296 1251.21 597.259 1251.85 597.886 1255.03 C 596.997 1257.23 596.463 1258.01 594.476 1259.32 C 591.43 1258.9 589.812 1257.03 587.404 1255.17 C 586.275 1257.24 590.98 1261.66 591.235 1264.82 L 589.776 1265.84 L 587.95 1263.48 C 585.942 1264.45 579.259 1269.97 579.112 1272.28 C 578.975 1274.45 580.317 1273.73 579.244 1276.41 C 575.808 1276.98 575.556 1274.62 572.414 1274.64 L 573.531 1283.6 C 571.793 1288.08 569.841 1289.82 565.501 1291.9 C 558.25 1295.37 560.264 1304.83 557.688 1311.94 C 557.283 1310.85 556.875 1309.48 556.289 1308.45 C 554.97 1306.13 554.748 1305.6 552.315 1304.92 C 549.892 1307.03 553.386 1310 552.83 1313.32 C 551.123 1314.03 548.519 1314.89 547.328 1316.35 C 545.029 1319.17 544.035 1325.01 542.509 1328.44 C 539.367 1335.5 525.128 1362.61 521.089 1367.31 C 519.23 1369.47 516.437 1371.32 514.145 1373.03 C 514.751 1375.1 514.424 1374.52 515.371 1376.1 C 515.564 1376.42 515.775 1376.73 515.977 1377.05 L 514.744 1377.99 C 511.899 1377.87 509.517 1377.66 506.794 1378.7 L 506.101 1380.33 L 509.173 1384.36 C 509.739 1389.33 500.185 1389.87 499.094 1393.43 C 498.442 1395.56 500.31 1398.14 499.354 1400.42 C 497.009 1406.01 488.543 1407.99 486.511 1414.02 C 487.734 1415.32 488.216 1415.82 488.835 1417.54 C 485.606 1419.12 482.478 1420.81 479.359 1422.6 C 477.045 1431.99 475.915 1436.79 468.874 1443.88 C 458.868 1453.96 442.248 1493.88 436.494 1498.3 C 434.834 1499.58 433.287 1499.94 431.625 1501.44 L 433.276 1504.45 C 430.521 1510.2 427.403 1519.8 422.472 1523.74 L 415.349 1529.46 C 408.011 1533.73 409.311 1543.38 399.086 1546.04 L 397.753 1545.26 C 398.804 1541.39 401.674 1538.32 404.77 1535.9 C 406.172 1534.8 407.095 1534.05 408.034 1532.49 L 407.004 1530.56 C 403.804 1528.59 401.029 1527.71 397.392 1526.81 L 395.538 1528.11 L 395.342 1530.16 C 397.636 1530.83 400.499 1530.23 402.885 1530.04 L 404.064 1531.53 C 400.689 1536.62 394.954 1531.73 390.398 1533.93 C 392.456 1535.55 391.527 1534.66 393.201 1536.56 L 391.997 1539.58 C 393.619 1539.35 395.243 1539.13 396.869 1538.93 C 396.484 1541.87 394.662 1544.49 393.248 1547.06 C 390.825 1548.38 390.149 1547.78 387.502 1547.4 C 386.835 1550.22 387.95 1553.18 388.565 1555.99 L 387.947 1556.72 C 387.075 1556.08 386.915 1556.05 386.175 1555.06 C 384.206 1552.43 383.479 1546.85 384.284 1543.74 C 384.77 1541.87 384.354 1542.55 386.132 1541.53 C 387.627 1542.48 389.089 1543.34 390.679 1544.12 L 392.05 1543.12 C 391.65 1538.64 387.395 1536.49 386.663 1531.93 L 389.57 1529.43 C 389.342 1527.16 389.558 1527.88 388.901 1525.99 C 388.763 1525.59 388.606 1525.2 388.459 1524.8 C 390.878 1516.02 395.959 1503.18 402.337 1496.57 C 404.419 1498.51 405.298 1499.85 408.129 1500.41 L 410.054 1498.49 L 409.85 1497.14 L 405.6 1495.06 L 405.03 1493.38 C 407.483 1489.62 409.771 1485.72 412.679 1482.28 C 415.018 1482.15 416.531 1482.22 418.458 1480.78 L 417.529 1479.23 L 412.326 1479.85 C 411.747 1476.95 428.376 1447.44 431.22 1442.62 L 435.413 1441.58 C 436.375 1438.73 434.248 1439.02 434.512 1435.95 C 437.285 1434.44 438.12 1435.11 441.136 1435.75 C 442.558 1434.24 442.645 1433.31 443.162 1431.35 C 442.36 1428.64 441.597 1426.43 443.029 1423.73 C 444.458 1421.03 447.342 1420.23 450.003 1419.2 L 451.207 1418.75 C 450.797 1417.68 450.362 1416.63 449.876 1415.6 L 449.278 1414.34 C 450.873 1406.78 458.836 1402.06 463.419 1396.22 C 463.632 1394.95 463.902 1393.69 464.098 1392.42 C 464.806 1387.86 467.337 1385.02 470.022 1381.39 C 472.17 1380.92 471.515 1380.99 473.358 1380.82 C 473.727 1380.79 474.097 1380.77 474.466 1380.74 C 475.614 1378.27 474.684 1375.85 474.157 1373.3 C 473.791 1371.53 474.029 1371.48 474.636 1369.86 C 475.916 1370.41 477.124 1370.82 478.447 1371.24 L 479.795 1369.52 L 478.813 1364.54 C 482.199 1357.68 489.222 1355.37 493.182 1349.79 C 496.483 1345.15 495.888 1335.6 499.75 1331.17 C 502.307 1328.24 507.763 1327.41 510.825 1324.67 C 512.053 1323.56 511.646 1323.88 511.718 1322 C 509.93 1320.8 508.692 1320.17 507.892 1318.1 C 510.557 1311.05 516.874 1312.86 520.982 1307.99 L 520.417 1306.89 L 515.514 1307.49 L 515.538 1306.04 C 520.188 1297.7 526.085 1292.33 533.192 1286.19 C 532.94 1285.75 531.959 1284.11 531.864 1283.67 C 531.237 1280.73 534.95 1274.99 536.86 1272.68 L 538.984 1273.2 C 556.637 1243.06 576.327 1214.05 595.509 1184.91 L 594.34 1182.03 C 596.075 1178.83 598.425 1183.94 604.08 1174.55 C 610.234 1164.32 615.728 1153.67 621.967 1143.5 C 625.942 1137.02 630.914 1131.2 634.992 1124.79 C 639.45 1117.78 643.115 1110.28 647.64 1103.31 C 651.922 1096.71 656.98 1090.62 661.37 1084.09 C 671.47 1069.07 681.108 1053.73 691.237 1038.7 C 694.607 1033.69 696.85 1028.05 700.209 1023.11 C 704.94 1016.15 712.125 1011.12 716.948 1004.04 C 721.754 996.992 732.334 973.898 738.454 970.53 C 740.912 969.177 741.703 968.509 743.032 966.049 C 744.857 962.67 746.658 959.209 749.812 956.921 C 751.152 957.341 752.704 957.935 754.106 958.171 C 756.771 958.622 757.25 958.715 759.361 957.283 L 759.507 955.862 C 757.528 955.302 755.337 954.895 753.734 953.54 C 752.682 952.651 753.082 951.527 753.058 950.262 C 755.282 947.18 755.979 950.19 759.238 949.082 L 759.38 946.905 L 757.222 944.9 C 759.955 944.307 762.229 943.65 764.793 942.54 C 766.157 939.076 765.793 938.595 764.348 935.245 z"/>
</svg>